<mxfile host="65bd71144e">
    <diagram id="qgUoFgyJtX1fBeCNXPvP" name="Page-1">
        <mxGraphModel dx="1163" dy="1647" grid="1" gridSize="10" guides="1" tooltips="1" connect="1" arrows="1" fold="1" page="1" pageScale="1" pageWidth="827" pageHeight="1169" math="0" shadow="0">
            <root>
                <mxCell id="0"/>
                <mxCell id="1" parent="0"/>
                <mxCell id="2" value="Project Resources" style="rounded=1;whiteSpace=wrap;html=1;" parent="1" vertex="1">
                    <mxGeometry x="-140" y="70" width="70" height="30" as="geometry"/>
                </mxCell>
                <mxCell id="3" value="Internal Resources" style="rounded=1;whiteSpace=wrap;html=1;" parent="1" vertex="1">
                    <mxGeometry x="-50" y="137" width="70" height="30" as="geometry"/>
                </mxCell>
                <mxCell id="5" value="External Resources" style="rounded=1;whiteSpace=wrap;html=1;" parent="1" vertex="1">
                    <mxGeometry x="-50" y="-33" width="70" height="30" as="geometry"/>
                </mxCell>
                <mxCell id="13" value="" style="endArrow=none;html=1;exitX=0;exitY=0.5;exitDx=0;exitDy=0;edgeStyle=orthogonalEdgeStyle;rounded=0;entryX=1;entryY=0.5;entryDx=0;entryDy=0;" parent="1" source="3" target="2" edge="1">
                    <mxGeometry width="50" height="50" relative="1" as="geometry">
                        <mxPoint x="100" y="110" as="sourcePoint"/>
                        <mxPoint x="150" y="60" as="targetPoint"/>
                        <Array as="points">
                            <mxPoint x="-60" y="152"/>
                            <mxPoint x="-60" y="85"/>
                        </Array>
                    </mxGeometry>
                </mxCell>
                <mxCell id="15" value="" style="endArrow=none;html=1;exitX=0;exitY=0.5;exitDx=0;exitDy=0;edgeStyle=orthogonalEdgeStyle;rounded=0;entryX=1;entryY=0.5;entryDx=0;entryDy=0;" parent="1" source="5" target="2" edge="1">
                    <mxGeometry width="50" height="50" relative="1" as="geometry">
                        <mxPoint x="35" y="100" as="sourcePoint"/>
                        <mxPoint x="150" y="60" as="targetPoint"/>
                    </mxGeometry>
                </mxCell>
                <mxCell id="16" value="Project Management Team" style="rounded=1;whiteSpace=wrap;html=1;" parent="1" vertex="1">
                    <mxGeometry x="35" y="220" width="80" height="40" as="geometry"/>
                </mxCell>
                <mxCell id="17" value="Engineering" style="rounded=1;whiteSpace=wrap;html=1;" parent="1" vertex="1">
                    <mxGeometry x="40" y="137" width="70" height="30" as="geometry"/>
                </mxCell>
                <mxCell id="18" value="Construction labor" style="rounded=1;whiteSpace=wrap;html=1;" parent="1" vertex="1">
                    <mxGeometry x="40" y="65" width="70" height="30" as="geometry"/>
                </mxCell>
                <mxCell id="19" value="Subcontractors" style="rounded=1;whiteSpace=wrap;html=1;" parent="1" vertex="1">
                    <mxGeometry x="40" width="90" height="30" as="geometry"/>
                </mxCell>
                <mxCell id="20" value="Material suppliers" style="rounded=1;whiteSpace=wrap;html=1;" parent="1" vertex="1">
                    <mxGeometry x="45" y="-70" width="70" height="30" as="geometry"/>
                </mxCell>
                <mxCell id="21" value="" style="endArrow=none;html=1;exitX=0;exitY=0.5;exitDx=0;exitDy=0;edgeStyle=orthogonalEdgeStyle;rounded=0;entryX=1;entryY=0.5;entryDx=0;entryDy=0;" parent="1" source="16" target="3" edge="1">
                    <mxGeometry width="50" height="50" relative="1" as="geometry">
                        <mxPoint x="-100" y="150" as="sourcePoint"/>
                        <mxPoint x="25" y="120" as="targetPoint"/>
                        <Array as="points">
                            <mxPoint x="30" y="240"/>
                            <mxPoint x="30" y="152"/>
                        </Array>
                    </mxGeometry>
                </mxCell>
                <mxCell id="22" value="" style="endArrow=none;html=1;exitX=0;exitY=0.5;exitDx=0;exitDy=0;edgeStyle=orthogonalEdgeStyle;rounded=0;entryX=1;entryY=0.5;entryDx=0;entryDy=0;" parent="1" source="18" target="3" edge="1">
                    <mxGeometry width="50" height="50" relative="1" as="geometry">
                        <mxPoint x="-55" y="150" as="sourcePoint"/>
                        <mxPoint x="35" y="130" as="targetPoint"/>
                        <Array as="points">
                            <mxPoint x="30" y="80"/>
                            <mxPoint x="30" y="152"/>
                        </Array>
                    </mxGeometry>
                </mxCell>
                <mxCell id="23" value="" style="endArrow=none;html=1;exitX=0;exitY=0.5;exitDx=0;exitDy=0;edgeStyle=orthogonalEdgeStyle;rounded=0;entryX=1;entryY=0.5;entryDx=0;entryDy=0;" parent="1" source="17" target="3" edge="1">
                    <mxGeometry width="50" height="50" relative="1" as="geometry">
                        <mxPoint x="125" y="150" as="sourcePoint"/>
                        <mxPoint x="35" y="130" as="targetPoint"/>
                    </mxGeometry>
                </mxCell>
                <mxCell id="25" value="" style="endArrow=none;html=1;edgeStyle=orthogonalEdgeStyle;rounded=0;exitX=0;exitY=0.5;exitDx=0;exitDy=0;entryX=1;entryY=0.5;entryDx=0;entryDy=0;" parent="1" source="20" target="5" edge="1">
                    <mxGeometry width="50" height="50" relative="1" as="geometry">
                        <mxPoint x="300" y="140" as="sourcePoint"/>
                        <mxPoint x="20" y="45" as="targetPoint"/>
                        <Array as="points">
                            <mxPoint x="30" y="-55"/>
                            <mxPoint x="30" y="-18"/>
                        </Array>
                    </mxGeometry>
                </mxCell>
                <mxCell id="27" value="" style="endArrow=none;html=1;edgeStyle=orthogonalEdgeStyle;rounded=0;exitX=0;exitY=0.5;exitDx=0;exitDy=0;entryX=1;entryY=0.5;entryDx=0;entryDy=0;" parent="1" source="19" target="5" edge="1">
                    <mxGeometry width="50" height="50" relative="1" as="geometry">
                        <mxPoint x="210" y="140" as="sourcePoint"/>
                        <mxPoint x="255" y="120" as="targetPoint"/>
                        <Array as="points">
                            <mxPoint x="30" y="16"/>
                            <mxPoint x="30" y="-18"/>
                        </Array>
                    </mxGeometry>
                </mxCell>
                <mxCell id="29" value="Project Manager" style="rounded=1;whiteSpace=wrap;html=1;" parent="1" vertex="1">
                    <mxGeometry x="150" y="192" width="100" height="19" as="geometry"/>
                </mxCell>
                <mxCell id="30" value="Site Manager" style="rounded=1;whiteSpace=wrap;html=1;" parent="1" vertex="1">
                    <mxGeometry x="150" y="220" width="80" height="20" as="geometry"/>
                </mxCell>
                <mxCell id="31" value="Scheduler" style="rounded=1;whiteSpace=wrap;html=1;" parent="1" vertex="1">
                    <mxGeometry x="150" y="250" width="70" height="17" as="geometry"/>
                </mxCell>
                <mxCell id="32" value="Site Inspector" style="rounded=1;whiteSpace=wrap;html=1;" parent="1" vertex="1">
                    <mxGeometry x="150" y="273.5" width="90" height="16.5" as="geometry"/>
                </mxCell>
                <mxCell id="33" value="Project Engineer" style="rounded=1;whiteSpace=wrap;html=1;" parent="1" vertex="1">
                    <mxGeometry x="150" y="167" width="100" height="17" as="geometry"/>
                </mxCell>
                <mxCell id="34" value="Arquitect" style="rounded=1;whiteSpace=wrap;html=1;" parent="1" vertex="1">
                    <mxGeometry x="150" y="138" width="70" height="20" as="geometry"/>
                </mxCell>
                <mxCell id="35" value="Civil Engineer" style="rounded=1;whiteSpace=wrap;html=1;" parent="1" vertex="1">
                    <mxGeometry x="150" y="112" width="80" height="17" as="geometry"/>
                </mxCell>
                <mxCell id="36" value="General Worker" style="rounded=1;whiteSpace=wrap;html=1;" parent="1" vertex="1">
                    <mxGeometry x="150" y="83" width="100" height="22" as="geometry"/>
                </mxCell>
                <mxCell id="37" value="Foreman" style="rounded=1;whiteSpace=wrap;html=1;" parent="1" vertex="1">
                    <mxGeometry x="150" y="56" width="70" height="19" as="geometry"/>
                </mxCell>
                <mxCell id="38" value="Etc." style="rounded=1;whiteSpace=wrap;html=1;" parent="1" vertex="1">
                    <mxGeometry x="150" y="30.5" width="70" height="19.5" as="geometry"/>
                </mxCell>
                <mxCell id="39" value="Plumbing" style="rounded=1;whiteSpace=wrap;html=1;" parent="1" vertex="1">
                    <mxGeometry x="150" y="5" width="70" height="19" as="geometry"/>
                </mxCell>
                <mxCell id="40" value="Electrical" style="rounded=1;whiteSpace=wrap;html=1;" parent="1" vertex="1">
                    <mxGeometry x="150" y="-22" width="70" height="19" as="geometry"/>
                </mxCell>
                <mxCell id="41" value="Construction commodities" style="rounded=1;whiteSpace=wrap;html=1;" parent="1" vertex="1">
                    <mxGeometry x="150" y="-50" width="150" height="20" as="geometry"/>
                </mxCell>
                <mxCell id="42" value="Steel pre-casted structures&amp;nbsp;" style="rounded=1;whiteSpace=wrap;html=1;" parent="1" vertex="1">
                    <mxGeometry x="150" y="-80" width="150" height="20" as="geometry"/>
                </mxCell>
                <mxCell id="45" value="" style="endArrow=none;html=1;edgeStyle=orthogonalEdgeStyle;rounded=0;exitX=0;exitY=0.25;exitDx=0;exitDy=0;entryX=1;entryY=0.5;entryDx=0;entryDy=0;" parent="1" source="42" target="20" edge="1">
                    <mxGeometry width="50" height="50" relative="1" as="geometry">
                        <mxPoint x="55" y="-45" as="sourcePoint"/>
                        <mxPoint x="30" y="-8" as="targetPoint"/>
                        <Array as="points">
                            <mxPoint x="130" y="-75"/>
                            <mxPoint x="130" y="-55"/>
                        </Array>
                    </mxGeometry>
                </mxCell>
                <mxCell id="46" value="" style="endArrow=none;html=1;edgeStyle=orthogonalEdgeStyle;rounded=0;exitX=0;exitY=0.5;exitDx=0;exitDy=0;entryX=1;entryY=0.5;entryDx=0;entryDy=0;" parent="1" source="41" target="20" edge="1">
                    <mxGeometry width="50" height="50" relative="1" as="geometry">
                        <mxPoint x="160" y="-65" as="sourcePoint"/>
                        <mxPoint x="125" y="-45" as="targetPoint"/>
                        <Array as="points">
                            <mxPoint x="130" y="-40"/>
                            <mxPoint x="130" y="-55"/>
                        </Array>
                    </mxGeometry>
                </mxCell>
                <mxCell id="47" value="" style="endArrow=none;html=1;edgeStyle=orthogonalEdgeStyle;rounded=0;exitX=0;exitY=0.5;exitDx=0;exitDy=0;" parent="1" source="40" edge="1">
                    <mxGeometry width="50" height="50" relative="1" as="geometry">
                        <mxPoint x="160" y="-65" as="sourcePoint"/>
                        <mxPoint x="130" y="15" as="targetPoint"/>
                        <Array as="points">
                            <mxPoint x="140" y="-12"/>
                            <mxPoint x="140" y="15"/>
                        </Array>
                    </mxGeometry>
                </mxCell>
                <mxCell id="48" value="" style="endArrow=none;html=1;edgeStyle=orthogonalEdgeStyle;rounded=0;exitX=0;exitY=0.5;exitDx=0;exitDy=0;entryX=1;entryY=0.5;entryDx=0;entryDy=0;" parent="1" source="38" target="19" edge="1">
                    <mxGeometry width="50" height="50" relative="1" as="geometry">
                        <mxPoint x="160" y="-2.5" as="sourcePoint"/>
                        <mxPoint x="140" y="17.5" as="targetPoint"/>
                        <Array as="points">
                            <mxPoint x="140" y="40"/>
                            <mxPoint x="140" y="15"/>
                        </Array>
                    </mxGeometry>
                </mxCell>
                <mxCell id="49" value="" style="endArrow=none;html=1;edgeStyle=orthogonalEdgeStyle;rounded=0;entryX=1;entryY=0.5;entryDx=0;entryDy=0;" parent="1" target="19" edge="1">
                    <mxGeometry width="50" height="50" relative="1" as="geometry">
                        <mxPoint x="150" y="15" as="sourcePoint"/>
                        <mxPoint x="140" y="25" as="targetPoint"/>
                        <Array as="points">
                            <mxPoint x="140" y="15"/>
                            <mxPoint x="140" y="15"/>
                        </Array>
                    </mxGeometry>
                </mxCell>
                <mxCell id="50" value="" style="endArrow=none;html=1;edgeStyle=orthogonalEdgeStyle;rounded=0;exitX=0;exitY=0.5;exitDx=0;exitDy=0;entryX=1;entryY=0.5;entryDx=0;entryDy=0;" parent="1" source="36" target="18" edge="1">
                    <mxGeometry width="50" height="50" relative="1" as="geometry">
                        <mxPoint x="160" y="50.25" as="sourcePoint"/>
                        <mxPoint x="140" y="25" as="targetPoint"/>
                        <Array as="points">
                            <mxPoint x="130" y="94"/>
                            <mxPoint x="130" y="80"/>
                            <mxPoint x="110" y="80"/>
                        </Array>
                    </mxGeometry>
                </mxCell>
                <mxCell id="51" value="" style="endArrow=none;html=1;edgeStyle=orthogonalEdgeStyle;rounded=0;exitX=0;exitY=0.5;exitDx=0;exitDy=0;entryX=1;entryY=0.5;entryDx=0;entryDy=0;" parent="1" source="37" target="18" edge="1">
                    <mxGeometry width="50" height="50" relative="1" as="geometry">
                        <mxPoint x="160" y="104" as="sourcePoint"/>
                        <mxPoint x="120" y="95" as="targetPoint"/>
                        <Array as="points">
                            <mxPoint x="130" y="66"/>
                            <mxPoint x="130" y="80"/>
                            <mxPoint x="110" y="80"/>
                        </Array>
                    </mxGeometry>
                </mxCell>
                <mxCell id="56" value="" style="endArrow=none;html=1;edgeStyle=orthogonalEdgeStyle;rounded=0;exitX=0;exitY=0.5;exitDx=0;exitDy=0;" parent="1" source="35" edge="1">
                    <mxGeometry width="50" height="50" relative="1" as="geometry">
                        <mxPoint x="160" y="75.5" as="sourcePoint"/>
                        <mxPoint x="110" y="150" as="targetPoint"/>
                        <Array as="points">
                            <mxPoint x="120" y="121"/>
                            <mxPoint x="120" y="150"/>
                        </Array>
                    </mxGeometry>
                </mxCell>
                <mxCell id="58" value="" style="endArrow=none;html=1;edgeStyle=orthogonalEdgeStyle;rounded=0;exitX=0;exitY=0.5;exitDx=0;exitDy=0;" parent="1" source="33" edge="1">
                    <mxGeometry width="50" height="50" relative="1" as="geometry">
                        <mxPoint x="160" y="130.5" as="sourcePoint"/>
                        <mxPoint x="110" y="150" as="targetPoint"/>
                        <Array as="points">
                            <mxPoint x="120" y="176"/>
                            <mxPoint x="120" y="150"/>
                            <mxPoint x="110" y="150"/>
                        </Array>
                    </mxGeometry>
                </mxCell>
                <mxCell id="60" value="" style="endArrow=none;html=1;edgeStyle=orthogonalEdgeStyle;rounded=0;exitX=0;exitY=0.5;exitDx=0;exitDy=0;entryX=1;entryY=0.5;entryDx=0;entryDy=0;" parent="1" source="29" target="16" edge="1">
                    <mxGeometry width="50" height="50" relative="1" as="geometry">
                        <mxPoint x="160" y="130.5" as="sourcePoint"/>
                        <mxPoint x="120" y="160" as="targetPoint"/>
                        <Array as="points">
                            <mxPoint x="130" y="202"/>
                            <mxPoint x="130" y="240"/>
                        </Array>
                    </mxGeometry>
                </mxCell>
                <mxCell id="61" value="" style="endArrow=none;html=1;edgeStyle=orthogonalEdgeStyle;rounded=0;exitX=0;exitY=0.5;exitDx=0;exitDy=0;" parent="1" source="32" edge="1">
                    <mxGeometry width="50" height="50" relative="1" as="geometry">
                        <mxPoint x="160" y="211.5" as="sourcePoint"/>
                        <mxPoint x="120" y="240" as="targetPoint"/>
                        <Array as="points">
                            <mxPoint x="130" y="282"/>
                            <mxPoint x="130" y="240"/>
                        </Array>
                    </mxGeometry>
                </mxCell>
                <mxCell id="62" value="" style="endArrow=none;html=1;edgeStyle=orthogonalEdgeStyle;rounded=0;exitX=0;exitY=0.5;exitDx=0;exitDy=0;entryX=1;entryY=0.5;entryDx=0;entryDy=0;" parent="1" source="30" target="16" edge="1">
                    <mxGeometry width="50" height="50" relative="1" as="geometry">
                        <mxPoint x="160" y="211.5" as="sourcePoint"/>
                        <mxPoint x="125" y="250" as="targetPoint"/>
                        <Array as="points">
                            <mxPoint x="130" y="230"/>
                            <mxPoint x="130" y="240"/>
                        </Array>
                    </mxGeometry>
                </mxCell>
                <mxCell id="63" value="" style="endArrow=none;html=1;edgeStyle=orthogonalEdgeStyle;rounded=0;exitX=0;exitY=0.25;exitDx=0;exitDy=0;entryX=1;entryY=0.5;entryDx=0;entryDy=0;" parent="1" source="31" target="16" edge="1">
                    <mxGeometry width="50" height="50" relative="1" as="geometry">
                        <mxPoint x="160" y="240" as="sourcePoint"/>
                        <mxPoint x="125" y="250" as="targetPoint"/>
                        <Array as="points">
                            <mxPoint x="130" y="254"/>
                            <mxPoint x="130" y="240"/>
                        </Array>
                    </mxGeometry>
                </mxCell>
                <mxCell id="65" value="" style="endArrow=none;html=1;edgeStyle=orthogonalEdgeStyle;rounded=0;exitX=0;exitY=0.5;exitDx=0;exitDy=0;entryX=1;entryY=0.5;entryDx=0;entryDy=0;" parent="1" edge="1">
                    <mxGeometry width="50" height="50" relative="1" as="geometry">
                        <mxPoint x="150" y="146" as="sourcePoint"/>
                        <mxPoint x="110" y="150" as="targetPoint"/>
                        <Array as="points">
                            <mxPoint x="150" y="150"/>
                        </Array>
                    </mxGeometry>
                </mxCell>
            </root>
        </mxGraphModel>
    </diagram>
    <diagram id="NCsQ5cFuziy63mqR5_Nx" name="Page-2">
        <mxGraphModel dx="336" dy="478" grid="1" gridSize="10" guides="1" tooltips="1" connect="1" arrows="1" fold="1" page="1" pageScale="1" pageWidth="827" pageHeight="1169" math="0" shadow="0">
            <root>
                <mxCell id="3kepAqDnsnHv2FPgrlQd-0"/>
                <mxCell id="3kepAqDnsnHv2FPgrlQd-1" parent="3kepAqDnsnHv2FPgrlQd-0"/>
                <mxCell id="3kepAqDnsnHv2FPgrlQd-2" value="Approaches to CBS Budgeting" style="rounded=0;whiteSpace=wrap;html=1;" vertex="1" parent="3kepAqDnsnHv2FPgrlQd-1">
                    <mxGeometry x="90" y="50" width="180" height="30" as="geometry"/>
                </mxCell>
                <mxCell id="3kepAqDnsnHv2FPgrlQd-3" value="Activity Based Costing (ABC)" style="rounded=0;whiteSpace=wrap;html=1;" vertex="1" parent="3kepAqDnsnHv2FPgrlQd-1">
                    <mxGeometry x="304" y="40" width="160" height="28" as="geometry"/>
                </mxCell>
                <mxCell id="3kepAqDnsnHv2FPgrlQd-5" value="Cost Code" style="rounded=0;whiteSpace=wrap;html=1;" vertex="1" parent="3kepAqDnsnHv2FPgrlQd-1">
                    <mxGeometry x="354" y="80" width="60" height="27.5" as="geometry"/>
                </mxCell>
                <mxCell id="muPrl68AJmjM3VXBWZvC-0" value="" style="endArrow=none;html=1;exitX=1;exitY=0.5;exitDx=0;exitDy=0;edgeStyle=orthogonalEdgeStyle;rounded=0;entryX=0;entryY=0.75;entryDx=0;entryDy=0;" edge="1" parent="3kepAqDnsnHv2FPgrlQd-1" source="3kepAqDnsnHv2FPgrlQd-2" target="3kepAqDnsnHv2FPgrlQd-3">
                    <mxGeometry width="50" height="50" relative="1" as="geometry">
                        <mxPoint x="190" y="110" as="sourcePoint"/>
                        <mxPoint x="170" y="213" as="targetPoint"/>
                        <Array as="points">
                            <mxPoint x="290" y="65"/>
                            <mxPoint x="290" y="51"/>
                        </Array>
                    </mxGeometry>
                </mxCell>
                <mxCell id="muPrl68AJmjM3VXBWZvC-3" value="" style="endArrow=none;html=1;exitX=1;exitY=0.5;exitDx=0;exitDy=0;edgeStyle=orthogonalEdgeStyle;rounded=0;entryX=0;entryY=0.5;entryDx=0;entryDy=0;" edge="1" parent="3kepAqDnsnHv2FPgrlQd-1" source="3kepAqDnsnHv2FPgrlQd-2" target="3kepAqDnsnHv2FPgrlQd-5">
                    <mxGeometry width="50" height="50" relative="1" as="geometry">
                        <mxPoint x="280" y="75" as="sourcePoint"/>
                        <mxPoint x="310" y="61" as="targetPoint"/>
                        <Array as="points">
                            <mxPoint x="290" y="65"/>
                            <mxPoint x="290" y="94"/>
                        </Array>
                    </mxGeometry>
                </mxCell>
            </root>
        </mxGraphModel>
    </diagram>
</mxfile>